<svg width="56" height="56" viewBox="0 0 56 56" fill="none" xmlns="http://www.w3.org/2000/svg">
<path d="M27.9958 56C12.5459 56 0.00998543 43.4628 5.93137e-06 28.0083C-0.00997357 12.5539 12.5742 -0.0331982 28.0341 6.57788e-05C43.494 0.0333298 56.0199 12.5739 56 28.02C55.98 43.4661 43.4458 56.0083 27.9958 56ZM30.3976 36.4374C30.3976 34.2187 30.4075 31.9984 30.3876 29.7846C30.3876 29.3639 30.4724 29.2142 30.9248 29.2241C32.2721 29.2557 33.6209 29.2241 34.9698 29.2391C35.2459 29.2391 35.4306 29.2241 35.4688 28.8666C35.6268 27.2782 35.7915 25.6915 35.9961 24.1098C36.0543 23.6541 35.888 23.6108 35.5087 23.6108C33.9952 23.6275 32.4816 23.6108 30.9681 23.6108C30.7252 23.6108 30.4691 23.679 30.4691 23.2666C30.4907 21.936 30.4491 20.6054 30.499 19.2849C30.5373 18.2637 31.3589 17.5485 32.3968 17.5418C33.4347 17.5352 34.5124 17.5302 35.5703 17.5568C35.9462 17.5668 36.0693 17.4703 36.0593 17.0778C36.0349 15.7095 36.0349 14.3407 36.0593 12.9714C36.0593 12.5589 35.9412 12.4491 35.5337 12.4541C33.9569 12.4691 32.3735 12.4391 30.8051 12.4375C27.7014 12.4375 24.8174 15.3015 24.809 18.3967C24.809 19.9518 24.7941 21.5086 24.8174 23.0637C24.8174 23.4495 24.7176 23.5493 24.335 23.5427C23.0493 23.5177 21.7636 23.5427 20.4779 23.5244C20.0838 23.5244 19.9374 23.6042 19.944 24.0233C19.969 25.6 19.9723 27.1834 19.944 28.7518C19.9357 29.2192 20.1104 29.294 20.5179 29.2857C21.7204 29.2624 22.9246 29.3073 24.1255 29.2641C24.6577 29.2458 24.7658 29.4187 24.7641 29.9293C24.7442 34.2853 24.7641 38.6395 24.7392 42.9954C24.7392 43.4661 24.8556 43.5776 25.3163 43.5676C26.8299 43.536 28.3451 43.5393 29.8587 43.5676C30.2845 43.5759 30.4125 43.4778 30.4075 43.032C30.3776 40.8349 30.3976 38.6362 30.3976 36.4374Z" fill="#3F464A"/>
</svg>
