<svg width="30" height="29" viewBox="0 0 30 29" fill="none" xmlns="http://www.w3.org/2000/svg">
<path d="M16.0132 28.6108H13.7776C13.7477 28.5219 13.6693 28.5563 13.6118 28.5511C12.3616 28.4313 11.1325 28.1475 9.95632 27.707C3.12039 25.1077 -0.671792 17.9499 1.05064 10.901C2.83581 3.59231 9.97051 -1.06632 17.4242 0.21019C23.4661 1.24619 28.2046 6.12216 29.1062 12.2149C29.154 12.5383 29.1353 12.8737 29.2556 13.1859V15.4738C29.1585 15.5126 29.201 15.6007 29.1943 15.6665C29.086 16.6771 28.9165 17.678 28.5774 18.6355C26.6318 24.1394 22.7854 27.4125 17.038 28.4547C16.6974 28.516 16.3441 28.4891 16.0132 28.6108ZM14.9794 7.1492C14.0293 7.1492 13.08 7.1492 12.1299 7.1492C9.67547 7.15443 7.79768 9.02773 7.79768 11.4814C7.79768 13.3632 7.79768 15.2445 7.79768 17.1252C7.79768 19.5774 9.67622 21.4537 12.1299 21.4574C14.0107 21.4609 15.8919 21.4609 17.7737 21.4574C20.2281 21.4537 22.1007 19.5819 22.1059 17.1252C22.1099 15.233 22.1099 13.3423 22.1059 11.453C22.1 9.0352 20.2207 7.15741 17.8028 7.1492C16.861 7.14621 15.9198 7.1492 14.9794 7.1492Z" fill="#3F464A"/>
<path d="M9.2401 14.2782C9.2401 13.3654 9.2401 12.4534 9.2401 11.5414C9.24459 9.79284 10.4397 8.59999 12.186 8.59924C14.0284 8.59924 15.8709 8.59924 17.7133 8.59924C19.4604 8.59924 20.6547 9.79434 20.6577 11.5429C20.6607 13.3853 20.6607 15.2278 20.6577 17.0702C20.654 18.8188 19.4626 20.0109 17.7118 20.0139C15.8505 20.0139 13.9884 20.0198 12.1263 20.0139C10.6548 20.0086 9.52991 19.0742 9.27446 17.6543C9.24493 17.4518 9.23294 17.2471 9.23861 17.0426C9.23786 16.1179 9.2401 15.1962 9.2401 14.2782ZM14.9258 18.0016C15.8996 18.009 16.837 17.6311 17.5333 16.9503C18.2297 16.2694 18.6287 15.3409 18.6432 14.3671C18.6529 13.8802 18.5661 13.3962 18.3877 12.943C18.2094 12.4899 17.943 12.0766 17.6041 11.7269C17.2651 11.3773 16.8603 11.0982 16.4129 10.9058C15.9655 10.7135 15.4844 10.6117 14.9975 10.6063C14.5106 10.5983 14.027 10.6868 13.5745 10.8669C13.1221 11.0469 12.7098 11.3148 12.3616 11.6552C12.0133 11.9955 11.736 12.4015 11.5456 12.8497C11.3552 13.2978 11.2555 13.7793 11.2523 14.2662C11.2461 14.7531 11.3365 15.2364 11.5181 15.6881C11.6998 16.1399 11.9692 16.5511 12.3108 16.8981C12.6524 17.2451 13.0594 17.521 13.5082 17.7098C13.957 17.8985 14.4388 17.9965 14.9258 17.9979V18.0016ZM18.6798 11.5145C18.9195 11.5128 19.1489 11.4169 19.3186 11.2475C19.4882 11.0782 19.5845 10.8489 19.5866 10.6092C19.5858 10.3647 19.488 10.1304 19.3146 9.95784C19.1413 9.7853 18.9065 9.68862 18.6619 9.68902C18.4221 9.69362 18.1935 9.79097 18.024 9.96061C17.8545 10.1303 17.7573 10.359 17.7529 10.5988C17.753 10.72 17.7771 10.8399 17.8239 10.9517C17.8706 11.0635 17.9391 11.1649 18.0253 11.2501C18.1115 11.3352 18.2137 11.4025 18.3261 11.4479C18.4384 11.4932 18.5587 11.5159 18.6798 11.5145Z" fill="#3F464A"/>
<path d="M17.2055 14.3099C17.2057 14.6058 17.1474 14.8989 17.034 15.1722C16.9206 15.4456 16.7544 15.6938 16.5448 15.9027C16.3352 16.1116 16.0864 16.2771 15.8126 16.3896C15.5389 16.502 15.2457 16.5593 14.9497 16.5581C14.6512 16.5591 14.3555 16.5006 14.0799 16.386C13.8042 16.2715 13.5541 16.1032 13.3441 15.891C13.1342 15.6788 12.9686 15.427 12.8569 15.1501C12.7453 14.8733 12.6899 14.577 12.694 14.2785C12.6957 13.9826 12.7558 13.6899 12.8709 13.4172C12.986 13.1446 13.1538 12.8974 13.3647 12.6898C13.5756 12.4822 13.8255 12.3183 14.0999 12.2076C14.3744 12.0968 14.668 12.0414 14.9639 12.0444C15.2602 12.0448 15.5535 12.1038 15.8268 12.2181C16.1002 12.3324 16.3482 12.4997 16.5566 12.7103C16.7649 12.9209 16.9296 13.1707 17.0409 13.4452C17.1523 13.7197 17.2082 14.0136 17.2055 14.3099Z" fill="#3F464A"/>
</svg>
