<svg width="57" height="56" viewBox="0 0 57 56" fill="none" xmlns="http://www.w3.org/2000/svg">
<path d="M30.7201 56H26.3444C26.2859 55.826 26.1324 55.8932 26.0198 55.883C23.5727 55.6486 21.1671 55.0932 18.8649 54.231C5.48496 49.1433 -1.93747 35.1332 1.43384 21.3366C4.92795 7.03122 18.8927 -2.08711 33.4817 0.411404C45.3076 2.43916 54.5824 11.9829 56.347 23.9082C56.4405 24.5413 56.404 25.1977 56.6394 25.8088V30.2868C56.4493 30.3628 56.5326 30.5353 56.5195 30.664C56.3075 32.642 55.9756 34.6011 55.3119 36.4753C51.5039 47.2481 43.9753 53.6545 32.7259 55.6944C32.0592 55.8143 31.3677 55.7617 30.7201 56ZM28.6967 13.9931C26.8371 13.9931 24.9789 13.9931 23.1193 13.9931C18.3152 14.0034 14.6398 17.67 14.6398 22.4726C14.6398 26.1558 14.6398 29.838 14.6398 33.5192C14.6398 38.3189 18.3167 41.9913 23.1193 41.9987C26.8005 42.0055 30.4827 42.0055 34.1659 41.9987C38.97 41.9913 42.6351 38.3276 42.6454 33.5192C42.6532 29.8156 42.6532 26.1148 42.6454 22.417C42.6337 17.6846 38.9554 14.0092 34.2229 13.9931C32.3794 13.9873 30.5373 13.9931 28.6967 13.9931Z" fill="#3F464A"/>
<path d="M17.4631 27.9464C17.4631 26.1599 17.4631 24.3748 17.4631 22.5898C17.4718 19.1673 19.811 16.8325 23.2291 16.8311C26.8353 16.8311 30.4415 16.8311 34.0477 16.8311C37.4672 16.8311 39.8049 19.1702 39.8108 22.5927C39.8166 26.1989 39.8166 29.8051 39.8108 33.4113C39.8034 36.8338 37.4716 39.1671 34.0447 39.1729C30.4015 39.1729 26.7568 39.1846 23.1121 39.1729C20.232 39.1627 18.0303 37.3338 17.5303 34.5545C17.4725 34.1582 17.449 33.7576 17.4601 33.3572C17.4587 31.5473 17.4631 29.7432 17.4631 27.9464ZM28.5916 35.2344C30.4978 35.2488 32.3324 34.5091 33.6954 33.1765C35.0584 31.8439 35.8393 30.0264 35.8678 28.1204C35.8868 27.1674 35.7168 26.2201 35.3677 25.3332C35.0186 24.4462 34.4973 23.6372 33.8339 22.9528C33.1704 22.2684 32.378 21.7223 31.5023 21.3458C30.6266 20.9693 29.6851 20.77 28.7319 20.7594C27.779 20.7437 26.8324 20.9171 25.9468 21.2695C25.0613 21.6219 24.2544 22.1463 23.5727 22.8124C22.8911 23.4786 22.3483 24.2732 21.9756 25.1504C21.6029 26.0276 21.4079 26.97 21.4016 27.923C21.3894 28.876 21.5663 29.8219 21.9219 30.7061C22.2775 31.5903 22.8048 32.3953 23.4734 33.0745C24.142 33.7537 24.9385 34.2936 25.817 34.6631C26.6955 35.0325 27.6386 35.2242 28.5916 35.227V35.2344ZM35.9395 22.5371C36.4086 22.5337 36.8576 22.346 37.1896 22.0145C37.5217 21.6831 37.7101 21.2344 37.7143 20.7652C37.7127 20.2865 37.5213 19.8279 37.1819 19.4902C36.8426 19.1525 36.3831 18.9633 35.9044 18.9641C35.4351 18.9731 34.9875 19.1636 34.6557 19.4957C34.3239 19.8277 34.1338 20.2754 34.1252 20.7448C34.1253 20.9819 34.1725 21.2167 34.2641 21.4355C34.3556 21.6544 34.4896 21.8528 34.6583 22.0195C34.827 22.1862 35.0271 22.3178 35.247 22.4066C35.4669 22.4955 35.7023 22.5398 35.9395 22.5371Z" fill="#3F464A"/>
<path d="M33.0537 28.0091C33.0541 28.5883 32.94 29.1619 32.7181 29.6969C32.4962 30.232 32.1707 30.7179 31.7605 31.1268C31.3502 31.5357 30.8632 31.8595 30.3275 32.0797C29.7917 32.2998 29.2177 32.4119 28.6385 32.4096C28.0543 32.4114 27.4755 32.2969 26.9359 32.0727C26.3964 31.8485 25.9069 31.5192 25.4959 31.1039C25.085 30.6886 24.7608 30.1956 24.5423 29.6537C24.3238 29.1119 24.2154 28.5319 24.2234 27.9477C24.2266 27.3685 24.3443 26.7956 24.5696 26.2619C24.7948 25.7283 25.1233 25.2444 25.5362 24.8381C25.949 24.4318 26.4381 24.111 26.9752 23.8942C27.5124 23.6775 28.0871 23.569 28.6663 23.5749C29.2462 23.5757 29.8202 23.6912 30.3552 23.9149C30.8902 24.1386 31.3757 24.466 31.7836 24.8782C32.1914 25.2904 32.5136 25.7793 32.7316 26.3167C32.9496 26.854 33.0591 27.4292 33.0537 28.0091Z" fill="#3F464A"/>
</svg>
