<svg width="55" height="56" viewBox="0 0 55 56" fill="none" xmlns="http://www.w3.org/2000/svg">
<path d="M0 30.3033V25.7115C0.168025 25.6512 0.0969377 25.5 0.107709 25.3827C0.231573 24.5189 0.308048 23.6453 0.476073 22.7903C1.95599 15.2642 5.77533 9.2607 11.9858 4.92329C18.2394 0.549699 25.179 -0.874185 32.6249 0.50914C38.5413 1.60528 43.5843 4.46072 47.6449 8.9768C53.4557 15.444 55.8135 23.0863 54.7536 31.7644C54.0697 37.4281 51.7701 42.4013 48.0186 46.6357C43.5896 51.645 38.0857 54.6813 31.522 55.7008C30.865 55.8027 30.1875 55.7742 29.5488 56H25.2523C25.193 55.8279 25.0444 55.897 24.9291 55.8849C23.6303 55.752 22.3415 55.5323 21.071 55.2272C15.7349 53.9176 10.9049 51.0153 7.201 46.8925C3.49708 42.7697 1.08813 37.6147 0.283274 32.0889C0.204647 31.4969 0.245575 30.8754 0 30.3033ZM29.9236 24.6603C29.9236 23.7571 29.9171 22.9811 29.9236 22.2061C29.9236 21.9507 29.8923 21.8038 29.5811 21.806C27.5755 21.817 25.57 21.817 23.5645 21.806C23.2629 21.806 23.2058 21.9255 23.2187 22.194C23.2413 22.6665 23.2413 23.1411 23.2413 23.619C23.2349 29.6697 23.2349 35.7193 23.2069 41.7699C23.2069 42.2676 23.3383 42.3586 23.7939 42.352C25.6917 42.3235 27.5895 42.3301 29.4874 42.352C29.8374 42.352 29.9322 42.261 29.929 41.9037C29.9107 39.9898 29.916 38.0771 29.9214 36.1632C29.9265 34.1953 29.9379 32.2273 29.9559 30.2594C29.9624 29.3825 30.3318 28.6338 30.8843 27.9893C31.8602 26.8515 33.1107 26.5051 34.527 26.8493C35.8195 27.165 36.4496 28.145 36.7577 29.3891C36.9181 30.0994 36.9905 30.8275 36.9731 31.5561C36.9731 34.9827 36.9731 38.4092 36.9634 41.8346C36.9634 42.2161 37.0151 42.3619 37.4438 42.3553C39.3603 42.3268 41.2761 42.3268 43.1911 42.3553C43.6144 42.3619 43.679 42.2292 43.6769 41.8401C43.6629 38.1582 43.6704 34.4773 43.6672 30.7965C43.6762 29.9947 43.6291 29.1932 43.5261 28.3982C42.9875 24.6198 40.8657 21.8213 36.9473 21.4059C34.1834 21.1176 31.8548 21.9145 30.2036 24.3172C30.1444 24.394 30.0744 24.4696 29.9236 24.6603ZM12.8109 32.1141C12.8109 35.3564 12.8184 38.5977 12.8001 41.8401C12.8001 42.2533 12.9024 42.3509 13.302 42.3465C15.2163 42.3231 17.131 42.3231 19.0461 42.3465C19.4651 42.3465 19.5372 42.2205 19.5372 41.8269C19.5243 35.3232 19.5243 28.8194 19.5372 22.3157C19.5372 21.9112 19.4425 21.7906 19.0342 21.7961C17.1551 21.8195 15.2759 21.8195 13.3968 21.7961C12.9433 21.7961 12.7925 21.8761 12.7968 22.3837C12.8195 25.6282 12.8065 28.8706 12.8065 32.113L12.8109 32.1141ZM15.9624 11.9342C14.7474 11.9846 13.4905 12.468 12.7839 13.9072C12.5723 14.3298 12.4477 14.792 12.4177 15.2653C12.3877 15.7386 12.453 16.2132 12.6095 16.66C12.766 17.1068 13.0104 17.5164 13.3278 17.8637C13.6453 18.211 14.029 18.4887 14.4556 18.6798C16.4848 19.5973 18.9405 18.7335 19.6999 16.8361C20.6736 14.384 18.9373 11.9386 15.9581 11.9331L15.9624 11.9342Z" fill="#3F464A"/>
</svg>
