<svg width="29" height="29" viewBox="0 0 29 29" fill="none" xmlns="http://www.w3.org/2000/svg">
<path d="M0.473633 15.385V13.0538C0.560491 13.0232 0.523743 12.9464 0.529311 12.8868C0.593341 12.4483 0.632873 12.0048 0.719731 11.5707C1.48475 7.74969 3.45909 4.70168 6.66949 2.49956C9.90216 0.279084 13.4895 -0.443825 17.3385 0.258492C20.3969 0.815003 23.0038 2.26471 25.1028 4.55754C28.1067 7.84096 29.3255 11.721 28.7776 16.1269C28.424 19.0023 27.2353 21.5272 25.296 23.677C23.0066 26.2203 20.1614 27.7618 16.7684 28.2794C16.4287 28.3311 16.0785 28.3167 15.7484 28.4313H13.5274C13.4967 28.3439 13.4199 28.379 13.3603 28.3729C12.6889 28.3054 12.0227 28.1939 11.3659 28.039C8.6075 27.3741 6.11075 25.9006 4.19607 23.8074C2.28139 21.7143 1.03612 19.0971 0.620066 16.2916C0.579421 15.9911 0.600579 15.6755 0.473633 15.385ZM15.9421 12.5201C15.9421 12.0615 15.9388 11.6675 15.9421 11.2741C15.9421 11.1444 15.926 11.0698 15.7651 11.0709C14.7283 11.0765 13.6916 11.0765 12.6549 11.0709C12.499 11.0709 12.4695 11.1316 12.4762 11.268C12.4878 11.5078 12.4878 11.7488 12.4878 11.9914C12.4845 15.0634 12.4845 18.1347 12.47 21.2067C12.47 21.4593 12.538 21.5055 12.7735 21.5022C13.7545 21.4877 14.7356 21.4911 15.7166 21.5022C15.8976 21.5022 15.9466 21.456 15.9449 21.2746C15.9354 20.3029 15.9382 19.3318 15.941 18.3601C15.9436 17.361 15.9495 16.3619 15.9588 15.3628C15.9622 14.9176 16.1531 14.5375 16.4388 14.2102C16.9432 13.6326 17.5896 13.4567 18.3218 13.6315C18.9899 13.7917 19.3157 14.2893 19.4749 14.9209C19.5578 15.2815 19.5952 15.6512 19.5862 16.0211C19.5862 17.7608 19.5862 19.5004 19.5812 21.2395C19.5812 21.4332 19.608 21.5072 19.8296 21.5039C20.8203 21.4894 21.8106 21.4894 22.8005 21.5039C23.0194 21.5072 23.0528 21.4399 23.0517 21.2423C23.0444 19.373 23.0483 17.5042 23.0466 15.6355C23.0513 15.2284 23.0269 14.8214 22.9737 14.4178C22.6953 12.4995 21.5985 11.0787 19.5729 10.8678C18.1442 10.7215 16.9404 11.126 16.0869 12.3459C16.0563 12.3849 16.0201 12.4233 15.9421 12.5201ZM7.09598 16.3044C7.09598 17.9505 7.09988 19.5961 7.09042 21.2423C7.09042 21.4521 7.14331 21.5016 7.34988 21.4994C8.33946 21.4875 9.32923 21.4875 10.3192 21.4994C10.5358 21.4994 10.5731 21.4354 10.5731 21.2356C10.5664 17.9337 10.5664 14.6317 10.5731 11.3297C10.5731 11.1244 10.5241 11.0632 10.3131 11.0659C9.34167 11.0778 8.37027 11.0778 7.39887 11.0659C7.16447 11.0659 7.08652 11.1066 7.08875 11.3642C7.10044 13.0115 7.09376 14.6577 7.09376 16.3038L7.09598 16.3044ZM8.72513 6.05901C8.09708 6.08461 7.44731 6.33003 7.08206 7.06073C6.97269 7.27529 6.90828 7.50992 6.89277 7.75023C6.87727 7.99054 6.911 8.23149 6.99189 8.45832C7.07279 8.68515 7.19914 8.89309 7.36323 9.06942C7.52732 9.24574 7.72569 9.38674 7.94619 9.48378C8.99516 9.94958 10.2646 9.51105 10.6572 8.54773C11.1605 7.30281 10.263 6.06123 8.7229 6.05845L8.72513 6.05901Z" fill="#3F464A"/>
</svg>
