<svg width="30" height="30" viewBox="0 0 30 30" fill="none" xmlns="http://www.w3.org/2000/svg">
<path d="M5.625 20.625C3.75 22.2 3.125 26.875 3.125 26.875C3.125 26.875 7.8 26.25 9.375 24.375C10.2625 23.325 10.25 21.7125 9.2625 20.7375C8.77663 20.2737 8.13662 20.0058 7.46528 19.985C6.79395 19.9642 6.1386 20.1921 5.625 20.625Z" stroke="#0B88DF" stroke-width="1.5" stroke-linecap="round" stroke-linejoin="round"/>
<path d="M15 18.75L11.25 15C11.9152 13.2743 12.7528 11.6201 13.75 10.0625C15.2065 7.73374 17.2345 5.81632 19.6413 4.49262C22.048 3.16892 24.7533 2.48297 27.5 2.5C27.5 5.9 26.525 11.875 20 16.25C18.4211 17.2484 16.7461 18.0859 15 18.75Z" stroke="white" stroke-width="1.5" stroke-linecap="round" stroke-linejoin="round"/>
<path d="M11.25 15H5C5 15 5.6875 11.2125 7.5 10C9.525 8.65002 13.75 10 13.75 10" stroke="white" stroke-width="1.5" stroke-linecap="round" stroke-linejoin="round"/>
<path d="M15 18.75V25C15 25 18.7875 24.3125 20 22.5C21.35 20.475 20 16.25 20 16.25" stroke="white" stroke-width="1.5" stroke-linecap="round" stroke-linejoin="round"/>
</svg>
