<svg width="29" height="29" viewBox="0 0 29 29" fill="none" xmlns="http://www.w3.org/2000/svg">
<path d="M13.6201 0H15.843C15.8669 0.0751121 15.9315 0.0489621 15.9816 0.0523004C16.7377 0.106323 17.4875 0.228482 18.2217 0.41729C25.733 2.34851 30.2851 9.67166 28.6779 17.2352C27.0323 24.9884 19.138 29.9241 11.4351 28.0235C5.78252 26.6286 1.58177 22.0251 0.719463 16.2837C0.673815 15.9811 0.695528 15.6656 0.568604 15.3757V12.9888C0.6599 12.9621 0.624271 12.8831 0.629838 12.8269C0.696199 12.2115 0.798432 11.6005 0.936015 10.997C2.31548 5.2534 6.88031 1.04823 12.7144 0.150224C13.0167 0.104044 13.3312 0.1263 13.6201 0ZM22.3812 8.11266C21.8579 8.49268 21.2517 8.66905 20.6399 8.83597C20.4685 8.88382 20.3577 8.861 20.2246 8.73415C19.2855 7.84393 17.881 7.61859 16.6936 8.13826C16.0293 8.43352 15.4822 8.94144 15.1388 9.58189C14.7954 10.2223 14.6751 10.9588 14.7969 11.6752C14.8198 11.8188 14.8214 11.8672 14.6494 11.8538C12.6453 11.6941 10.869 10.9786 9.32416 9.68891C8.88438 9.32447 8.49748 8.90885 8.08665 8.44928C7.30228 10.1702 7.63183 11.6023 9.05806 12.808C8.53923 12.7858 8.09054 12.6294 7.63907 12.4185C7.65132 13.2075 7.88179 13.8841 8.3533 14.4772C8.82481 15.0703 9.42993 15.4364 10.2204 15.6411C9.7105 15.7875 9.26014 15.783 8.77304 15.7001C9.32694 17.0966 10.3156 17.8361 11.802 17.9813C10.4013 19.0724 8.83205 19.4329 7.13861 19.3889C7.21825 19.4496 7.30278 19.5036 7.39135 19.5503C9.49339 20.7471 11.7374 21.0525 14.0866 20.5629C18.6264 19.6121 21.2011 15.5132 21.274 11.6819C21.2818 11.264 21.3558 10.9719 21.7193 10.7132C22.178 10.3855 22.5388 9.94206 22.8811 9.41016C22.2788 9.6444 21.7299 9.823 21.0691 9.88642C21.6865 9.47025 22.104 8.98897 22.359 8.37584C22.3918 8.29738 22.502 8.20892 22.3823 8.11211C22.389 8.1288 22.3946 8.14549 22.4018 8.16163C22.4018 8.16163 22.413 8.16163 22.4185 8.16163L22.3812 8.11266Z" fill="#3F464A"/>
</svg>
