<svg width="56" height="56" viewBox="0 0 56 56" fill="none" xmlns="http://www.w3.org/2000/svg">
<path d="M25.707 0H30.0853C30.1324 0.147945 30.2596 0.0964387 30.3583 0.103014C31.8477 0.209421 33.3244 0.450032 34.7705 0.821918C49.5653 4.62576 58.5313 19.0499 55.3657 33.9474C52.1245 49.2187 36.5753 58.9403 21.4033 55.1967C10.2696 52.4493 1.99559 43.3819 0.297142 32.0734C0.207231 31.4773 0.249998 30.8559 0 30.2849V25.5836C0.179823 25.531 0.109645 25.3754 0.12061 25.2647C0.25132 24.0525 0.452684 22.849 0.723675 21.6603C3.44076 10.3474 12.4319 2.06466 23.923 0.29589C24.5184 0.204931 25.1379 0.248767 25.707 0ZM42.9634 15.9792C41.9327 16.7277 40.7387 17.0751 39.5336 17.4038C39.1959 17.4981 38.9777 17.4532 38.7157 17.2033C36.8659 15.4499 34.0995 15.006 31.7607 16.0296C30.4522 16.6112 29.3748 17.6116 28.6984 18.8731C28.0219 20.1345 27.785 21.5852 28.025 22.9962C28.0699 23.2789 28.0732 23.3743 27.7344 23.348C23.7871 23.0334 20.2882 21.6241 17.2455 19.0838C16.3792 18.366 15.6172 17.5474 14.808 16.6422C13.263 20.0318 13.9122 22.8526 16.7213 25.2274C15.6994 25.1836 14.8157 24.8756 13.9264 24.4603C13.9505 26.0143 14.4045 27.3469 15.3332 28.5151C16.2619 29.6833 17.4538 30.4044 19.0108 30.8077C18.0064 31.0959 17.1194 31.0871 16.1599 30.9238C17.2509 33.6745 19.1983 35.131 22.1259 35.417C19.3671 37.566 16.2762 38.2762 12.9407 38.1896C13.0975 38.3091 13.264 38.4154 13.4385 38.5074C17.5788 40.8647 21.9987 41.4663 26.6259 40.5019C35.5677 38.6291 40.6389 30.5556 40.7825 23.0093C40.7979 22.1863 40.9437 21.611 41.6597 21.1014C42.5632 20.4559 43.2737 19.5825 43.9481 18.5348C42.7617 18.9962 41.6805 19.348 40.379 19.4729C41.595 18.6532 42.4174 17.7052 42.9196 16.4975C42.9843 16.343 43.2014 16.1688 42.9656 15.9781C42.9788 16.011 42.9897 16.0438 43.004 16.0756C43.004 16.0756 43.0259 16.0756 43.0369 16.0756L42.9634 15.9792Z" fill="#3F464A"/>
</svg>
