<svg width="30" height="30" viewBox="0 0 30 30" fill="none" xmlns="http://www.w3.org/2000/svg">
<path d="M3.12499 21.25C2.25177 17.1291 2.25177 12.8709 3.12499 8.75C3.23973 8.33151 3.46142 7.95009 3.76825 7.64326C4.07509 7.33642 4.45651 7.11473 4.87499 7C11.5793 5.88932 18.4207 5.88932 25.125 7C25.5435 7.11473 25.9249 7.33642 26.2317 7.64326C26.5386 7.95009 26.7603 8.33151 26.875 8.75C27.7482 12.8709 27.7482 17.1291 26.875 21.25C26.7603 21.6685 26.5386 22.0499 26.2317 22.3567C25.9249 22.6636 25.5435 22.8853 25.125 23C18.4207 24.1109 11.5793 24.1109 4.87499 23C4.45651 22.8853 4.07509 22.6636 3.76825 22.3567C3.46142 22.0499 3.23973 21.6685 3.12499 21.25Z" stroke="white" stroke-width="1.5" stroke-linecap="round" stroke-linejoin="round"/>
<path d="M12.5 18.75L18.75 15L12.5 11.25V18.75Z" stroke="#0B88DF" stroke-width="1.5" stroke-linecap="round" stroke-linejoin="round"/>
</svg>
